<svg style="fill: white;" xmlns="http://www.w3.org/2000/svg" width="185.575" height="97.52" viewBox="0 0 185.575 97.52"><g transform="translate(-14.314 61.161) rotate(-71)"><g transform="translate(0)"><path d="M13.774,4.77a17.244,17.244,0,0,0-5.606-.59c-2.36.3-4.425,1.18-6.786.885A1.757,1.757,0,0,1,.5,2.115c3.245-3.245,10.621-2.36,14.162,0C16.43,3,15.545,5.36,13.774,4.77Z" transform="translate(49.061 0)"/><path d="M13,4.767a8.258,8.258,0,0,0-5.9-.59c-1.77.59-2.95,2.36-4.13,3.54A1.7,1.7,0,0,1,.02,6.537C-.275,3.292,2.676.932,5.626.342a10.308,10.308,0,0,1,9.146,2.065C15.657,3.292,14.477,5.357,13,4.767Z" transform="translate(26.821 5.904)"/><path d="M8.88,2.67c-3.835.3-4.721,4.13-6.2,7.081-.885,1.77-2.95.295-2.655-1.18C.619,3.85,3.864-.28,9.175.015A1.341,1.341,0,0,1,8.88,2.67Z" transform="translate(11.766 20.097)"/><path d="M7.664,1.619a17.883,17.883,0,0,0-4.13,8.556c-.59,2.656.3,5.311,0,7.966a1.091,1.091,0,0,1-2.065.3c-3.835-5.606.59-14.162,4.721-18A.947.947,0,1,1,7.664,1.619Z" transform="translate(0 43.571)"/><path d="M3.792,15.581c.3,1.475-1.77,2.655-2.36,1.18C-.928,11.745-.043,5.55,1.727.535,2.022-.35,3.5-.056,3.2.829,2.022,6.14,2.907,10.86,3.792,15.581Z" transform="translate(0.036 75.634)"/><path d="M6.491,15.563C2.95,11.728,0,6.417,0,1.106a1.183,1.183,0,0,1,2.36,0c.3,5.016,3.835,8.851,5.9,12.981A1.152,1.152,0,1,1,6.491,15.563Z" transform="translate(5.599 111.941)"/><path d="M12.959,9.714c-2.36-.59-4.425-2.065-6.786-3.54a28.057,28.057,0,0,1-5.9-4.425C-.612.863.863-.612,1.748.273c3.54,2.95,9.146,3.835,12.391,7.671A1.134,1.134,0,0,1,12.959,9.714Z" transform="translate(22.733 142.572)"/><path d="M14.51,8.085c-2.36-.59-4.425-2.065-6.491-2.95C5.659,3.954,3.3,3.069.643,1.889c-1.18-.59-.59-2.36.59-1.77,4.425,1.18,11.211,2.36,14.162,6.2C16.28,7.2,15.69,8.38,14.51,8.085Z" transform="translate(50.096 160.724)"/><path d="M28.323,21.725A74.336,74.336,0,0,1,1.77,25.561c-2.36,0-2.36-3.54,0-3.835a87.01,87.01,0,0,0,21.537-4.13L18.882,9.629c-1.18-2.36-3.54-5.311-2.655-7.966A1.926,1.926,0,0,1,18.882.188c2.95.885,3.835,4.13,5.016,6.491,1.77,3.835,3.835,7.376,5.9,10.916C31.273,19.069,30.093,21.135,28.323,21.725Z" transform="translate(63.13 153.574)"/></g></g></svg>