<svg style="fill: white;" xmlns="http://www.w3.org/2000/svg" width="185.575" height="97.52" viewBox="0 0 185.575 97.52"><g transform="translate(152.72 -28.896) rotate(71)"><g transform="translate(7.318 0)"><path d="M122.862,361.4a17.244,17.244,0,0,1-5.606.59c-2.36-.3-4.425-1.18-6.786-.885a1.757,1.757,0,0,0-.885,2.95c3.245,3.245,10.621,2.36,14.162,0C125.517,363.172,124.632,360.812,122.862,361.4Z" transform="translate(-60.026 -186.994)"/><path d="M75.955,345.786a8.258,8.258,0,0,1-5.9.59c-1.77-.59-2.95-2.36-4.13-3.54a1.7,1.7,0,0,0-2.95,1.18c-.3,3.245,2.655,5.606,5.606,6.2a10.308,10.308,0,0,0,9.146-2.065C78.611,347.262,77.431,345.2,75.955,345.786Z" transform="translate(-36.133 -177.278)"/><path d="M40.6,315.975c-3.835-.3-4.721-4.13-6.2-7.081-.885-1.77-2.95-.295-2.655,1.18.59,4.721,3.835,8.851,9.146,8.556A1.341,1.341,0,0,0,40.6,315.975Z" transform="translate(-19.959 -159.564)"/><path d="M14.982,259.194a17.883,17.883,0,0,1-4.13-8.556c-.59-2.656.3-5.311,0-7.966a1.091,1.091,0,0,0-2.065-.3c-3.835,5.606.59,14.162,4.721,18A.947.947,0,1,0,14.982,259.194Z" transform="translate(-7.318 -125.205)"/><path d="M11.186,180.471c.3-1.475-1.77-2.655-2.36-1.18-2.36,5.016-1.475,11.211.3,16.226.3.885,1.77.591,1.475-.295C9.415,189.912,10.3,185.191,11.186,180.471Z" transform="translate(-7.357 -92.507)"/><path d="M25.423,106.725c-3.54,3.835-6.491,9.146-6.491,14.457a1.183,1.183,0,0,0,2.36,0c.3-5.016,3.835-8.851,5.9-12.981A1.152,1.152,0,1,0,25.423,106.725Z" transform="translate(-13.333 -55.051)"/><path d="M67.433,55.742c-2.36.59-4.425,2.065-6.786,3.54a28.056,28.056,0,0,0-5.9,4.425c-.885.885.59,2.36,1.475,1.475,3.54-2.95,9.146-3.835,12.391-7.671A1.134,1.134,0,0,0,67.433,55.742Z" transform="translate(-31.741 -28.85)"/><path d="M125.743,21.462c-2.36.59-4.425,2.065-6.491,2.95-2.36,1.18-4.721,2.065-7.376,3.245-1.18.59-.59,2.36.59,1.77,4.425-1.18,11.211-2.36,14.162-6.2C127.514,22.347,126.924,21.167,125.743,21.462Z" transform="translate(-61.138 -11.092)"/><path d="M166.6,3.879A74.336,74.336,0,0,0,140.042.044c-2.36,0-2.36,3.54,0,3.835A87.009,87.009,0,0,1,161.58,8.01l-4.426,7.966c-1.18,2.36-3.54,5.311-2.655,7.966a1.926,1.926,0,0,0,2.655,1.475c2.95-.885,3.835-4.13,5.016-6.491,1.77-3.835,3.835-7.376,5.9-10.916C169.545,6.535,168.365,4.469,166.6,3.879Z" transform="translate(-75.142 0)"/></g></g></svg>